# xmcd
#
# Track frame offsets: 
#        150
#        24711
#        41436
#        74803
#        97271
#        131259
#        148772
#        166507
#        190134
#        212428
#        257643
#        286909
#        312231
#        336474
#
# Disc length: 4716 seconds
#
# Revision: 2
# Processed by: cddbd v1.5.2PL0 Copyright (c) Steve Scherf et al.
# Submitted via: ExactAudioCopy v0.95a5
#
DISCID=d2126a0e
DTITLE=Various Artist - The Hard Blues Masters  CD-4  
DYEAR=2003
DGENRE=Rock
TTITLE0=Business Man - CRAIG ERICKSON
TTITLE1=Save Yourself - SUNSET HEIGHTS
TTITLE2=32 Blues - CHRIS DUARTE
TTITLE3=Blues Is My Business - LARRY McCRAY
TTITLE4=If Heartaches - JOE BONAMASSA
TTITLE5=The Harder I Will Fall - ROB TOGNONI
TTITLE6=Groundhogs Day - JOHNNY LANG
TTITLE7=Blood from a Stone - RICK DERRINGER
TTITLE8=If You Can't Feel Anything Else - JEFF HEALEY
TTITLE9=Rose's Home - BIG GEORGE and The BUSINESS
TTITLE10=Good Food - PAUL GILBERT and JIMMY KIDD
TTITLE11=Alligator Alley - KEVIN RUSSELL
TTITLE12=Morning Rain - JULIAN SAS
TTITLE13=Hand Writing on the Wall - ERIC GALE
EXTD=
EXTT0=
EXTT1=
EXTT2=
EXTT3=
EXTT4=
EXTT5=
EXTT6=
EXTT7=
EXTT8=
EXTT9=
EXTT10=
EXTT11=
EXTT12=
EXTT13=
PLAYORDER=
